<svg width="21" height="20" viewBox="0 0 21 20" fill="none" xmlns="http://www.w3.org/2000/svg">
<path d="M1.29749 2.99995C1.29749 2.00584 2.16886 1.19995 3.24375 1.19995L7.13629 1.19995C8.21119 1.19995 9.08256 2.00584 9.08256 2.99995V6.59995C9.08256 7.59406 8.21119 8.39995 7.13629 8.39995H3.24375C2.16886 8.39995 1.29749 7.59406 1.29749 6.59995L1.29749 2.99995ZM11.6776 2.99995C11.6776 2.00584 12.549 1.19995 13.6239 1.19995L17.5164 1.19995C18.5913 1.19995 19.4627 2.00584 19.4627 2.99995V6.59995C19.4627 7.59406 18.5913 8.39995 17.5164 8.39995H13.6239C12.549 8.39995 11.6776 7.59406 11.6776 6.59995V2.99995ZM1.29749 12.6C1.29749 11.6058 2.16886 10.8 3.24375 10.8H7.13629C8.21119 10.8 9.08256 11.6058 9.08256 12.6V16.2C9.08256 17.1941 8.21119 18 7.13629 18H3.24375C2.16886 18 1.29749 17.1941 1.29749 16.2L1.29749 12.6ZM11.6776 12.6C11.6776 11.6058 12.549 10.8 13.6239 10.8H17.5164C18.5913 10.8 19.4627 11.6058 19.4627 12.6V16.2C19.4627 17.1941 18.5913 18 17.5164 18H13.6239C12.549 18 11.6776 17.1941 11.6776 16.2V12.6Z" fill="white"/>
</svg>
