<svg width="46" height="42" viewBox="0 0 46 42" fill="none" xmlns="http://www.w3.org/2000/svg">
<path d="M0 1.4C0 0.626801 0.686496 0 1.53333 0H6.13333C6.83693 0 7.45024 0.437216 7.62088 1.06045L8.86386 5.6H44.4667C44.9228 5.6 45.3553 5.78543 45.6466 6.10591C45.9379 6.42639 46.0578 6.84866 45.9737 7.258L41.3737 29.658C41.2377 30.3202 40.6045 30.8 39.8667 30.8H36.8H15.3333H12.2667C11.5288 30.8 10.8956 30.3202 10.7596 29.658L6.16802 7.29904L4.93614 2.8H1.53333C0.686496 2.8 0 2.1732 0 1.4ZM9.51422 8.4L13.5392 28H38.5941L42.6191 8.4H9.51422ZM15.3333 30.8C11.946 30.8 9.2 33.3072 9.2 36.4C9.2 39.4928 11.946 42 15.3333 42C18.7207 42 21.4667 39.4928 21.4667 36.4C21.4667 33.3072 18.7207 30.8 15.3333 30.8ZM36.8 30.8C33.4126 30.8 30.6667 33.3072 30.6667 36.4C30.6667 39.4928 33.4126 42 36.8 42C40.1873 42 42.9333 39.4928 42.9333 36.4C42.9333 33.3072 40.1873 30.8 36.8 30.8ZM15.3333 33.6C17.027 33.6 18.4 34.8536 18.4 36.4C18.4 37.9464 17.027 39.2 15.3333 39.2C13.6397 39.2 12.2667 37.9464 12.2667 36.4C12.2667 34.8536 13.6397 33.6 15.3333 33.6ZM36.8 33.6C38.4937 33.6 39.8667 34.8536 39.8667 36.4C39.8667 37.9464 38.4937 39.2 36.8 39.2C35.1063 39.2 33.7333 37.9464 33.7333 36.4C33.7333 34.8536 35.1063 33.6 36.8 33.6Z" fill="white"/>
</svg>
