<svg width="19" height="18" viewBox="0 0 19 18" fill="none" xmlns="http://www.w3.org/2000/svg">
<path d="M0.718994 2.39998C0.718994 1.40586 1.59037 0.599976 2.66526 0.599976L6.5578 0.599976C7.6327 0.599976 8.50407 1.40586 8.50407 2.39998V5.99998C8.50407 6.99409 7.6327 7.79998 6.5578 7.79998H2.66526C1.59037 7.79998 0.718994 6.99409 0.718994 5.99998L0.718994 2.39998ZM11.0991 2.39998C11.0991 1.40586 11.9705 0.599976 13.0454 0.599976L16.9379 0.599976C18.0128 0.599976 18.8842 1.40586 18.8842 2.39998V5.99998C18.8842 6.99409 18.0128 7.79998 16.9379 7.79998H13.0454C11.9705 7.79998 11.0991 6.99409 11.0991 5.99998V2.39998ZM0.718994 12C0.718994 11.0059 1.59037 10.2 2.66526 10.2H6.5578C7.6327 10.2 8.50407 11.0059 8.50407 12V15.6C8.50407 16.5941 7.6327 17.4 6.5578 17.4H2.66526C1.59037 17.4 0.718994 16.5941 0.718994 15.6L0.718994 12ZM11.0991 12C11.0991 11.0059 11.9705 10.2 13.0454 10.2H16.9379C18.0128 10.2 18.8842 11.0059 18.8842 12V15.6C18.8842 16.5941 18.0128 17.4 16.9379 17.4H13.0454C11.9705 17.4 11.0991 16.5941 11.0991 15.6V12Z" fill="#999696"/>
</svg>
